<?xml version="1.0" standalone="no"?>
<!DOCTYPE svg PUBLIC "-//W3C//DTD SVG 1.1//EN" "http://www.w3.org/Graphics/SVG/1.1/DTD/svg11.dtd" >
<svg xmlns="http://www.w3.org/2000/svg">
    <metadata>Generated by IcoMoon</metadata>
    <defs>
        <font id="icomoon" horiz-adv-x="1024">
            <font-face units-per-em="1024" ascent="960" descent="-64"/>
            <missing-glyph horiz-adv-x="1024"/>
            <glyph unicode="&#x20;" horiz-adv-x="512" d=""/>
            <glyph unicode="&#xe900;"
                   d="M264.842 465.629l-25.55 12.776c-5.98 2.99-9.758 9.102-9.758 15.79v66.448c0 6.686 3.778 12.8 9.758 15.79l25.55 12.776v-123.579z"/>
            <glyph unicode="&#xe901;" d="M670.888 236.126v123.577h-317.774v-123.577l158.887-141.233z"/>
            <glyph unicode="&#xe902;"
                   d="M916.567 178.319l-218.457 51.402c-3.3 0.776-6.334 2.094-9.174 3.692l-176.937-103.213-170.037 108.205c-4.402-4.144-9.866-7.224-16.072-8.686l-218.457-51.402c-31.9-7.506-54.444-35.97-54.444-68.74v-138.267c0-19.502 15.808-35.308 35.308-35.308h847.399c19.502 0 35.308 15.808 35.308 35.308v138.267c0.004 32.772-22.54 61.238-54.438 68.742z"/>
            <glyph unicode="&#xe903;"
                   d="M353.114 359.704v-130.385c200.155-72.114 317.774 108.369 317.774 108.369v22.018l-317.774-0.002z"/>
            <glyph unicode="&#xe904;"
                   d="M282.496 765.747l15.384-338.454c1.436-31.618 16.94-60.94 42.26-79.93l72.996-54.748c18.336-13.75 40.636-21.186 63.556-21.186h70.618c22.92 0 45.22 7.434 63.556 21.186l72.996 54.748c25.32 18.992 40.824 48.31 42.26 79.93l15.384 338.454c-0.002 0-459.007 0-459.007 0z"/>
            <glyph unicode="&#xe905;"
                   d="M459.039 695.132c70.618 0 176.541 17.654 201.665 70.618h-378.208l15.384-338.454c1.436-31.618 16.94-60.938 42.262-79.93l72.996-54.748c18.336-13.75 40.636-21.186 63.556-21.186h35.308c-35.308 0-105.925 70.618-105.925 158.887 0 43.172 0 158.887 0 211.851 0 17.654 17.654 52.962 52.964 52.962z"/>
            <glyph unicode="&#xe906;"
                   d="M182.599 50.577l-114.397 102.763c-9.586-12.138-15.206-27.412-15.206-43.764v-138.267c0-19.502 15.808-35.308 35.308-35.308h123.579v48.908c-0.002 25.054-10.648 48.928-29.284 65.668z"/>
            <glyph unicode="&#xe907;"
                   d="M841.405 50.577l114.397 102.763c9.586-12.138 15.206-27.412 15.206-43.764v-138.267c0-19.502-15.808-35.308-35.308-35.308h-123.579v48.908c0 25.054 10.646 48.928 29.284 65.668z"/>
            <glyph unicode="&#xe908;" d="M556.137-63.996h-88.271l11.034 158.889h66.204z"/>
            <glyph unicode="&#xe909;"
                   d="M556.137 130.201h-88.271v-33.226c0-10.902 8.836-19.738 19.738-19.738h48.794c10.902 0 19.738 8.836 19.738 19.738v33.226h0.002z"/>
            <glyph unicode="&#xe90a;"
                   d="M350.636 275.43l161.367-145.229c0 0-45.192-22.814-100.959-68.796-11.504-9.484-28.906-5.642-35.076 7.932l-75.814 166.787 23.984 35.974c5.968 8.96 18.496 10.532 26.498 3.332z"/>
            <glyph unicode="&#xe90b;"
                   d="M673.368 275.43l-161.367-145.229c0 0 45.192-22.814 100.959-68.796 11.504-9.484 28.906-5.642 35.076 7.932l75.814 166.787-23.984 35.974c-5.97 8.96-18.498 10.532-26.498 3.332z"/>
            <glyph unicode="&#xe90c;"
                   d="M714.359 582.895c33.502 22.357 53.641 59.972 53.641 100.25v191.522h-512v-191.522c0-40.277 20.139-77.892 53.641-100.25l159.044-116.787c5.769-4.233 9.182-10.957 9.182-18.108v0c0-7.151-3.413-13.875-9.165-18.108l-159.044-116.787c-33.519-22.357-53.658-59.972-53.658-100.25v-191.522h512v191.522c0 40.277-20.139 77.892-53.641 100.25l-159.044 116.787c-5.769 4.233-9.182 10.957-9.182 18.108v0c0 7.151 3.413 13.875 9.165 18.108l159.061 116.787z"/>
            <glyph unicode="&#xe90d;" d="M170.667 21.333h682.667v-68.267h-682.667v68.267z"/>
            <glyph unicode="&#xe90e;" d="M170.667 942.933h682.667v-68.267h-682.667v68.267z"/>
            <glyph unicode="&#xe90f;"
                   d="M921.6-29.867h-819.2c-9.421 0-17.067-7.629-17.067-17.067s7.646-17.067 17.067-17.067h819.2c9.421 0 17.067 7.629 17.067 17.067s-7.646 17.067-17.067 17.067z"/>
            <glyph unicode="&#xe910;"
                   d="M102.4 925.867h819.2c9.421 0 17.067 7.629 17.067 17.067s-7.646 17.067-17.067 17.067h-819.2c-9.421 0-17.067-7.629-17.067-17.067s7.646-17.067 17.067-17.067z"/>
            <glyph unicode="&#xe911;"
                   d="M685.943 625.493c19.319 12.885 30.857 34.441 30.857 57.634v0c0 22.289-15.172 41.728-36.796 47.138l-256.905 64.222c-58.863 14.729-115.9-29.798-115.9-90.487v-20.873c0-23.194 11.537-44.749 30.857-57.634l156.877-115.132v-270.967c0-61.952-64.239-103.014-120.457-76.988v0c-30.276 14.012-66.935-6.724-67.26-40.090 0-0.239 0-0.461 0-0.7v-100.284h409.6v191.539c0 0.239 0 0.461 0 0.7-0.324 32.956-32.239 56.695-64.7 51.046l-34.97-6.093c-45.995-8.004-88.081 27.392-88.081 74.052v177.783l156.877 115.132z"/>
            <glyph unicode="&#xe912;"
                   d="M111.709 829.675l-93.092-428.218h297.893l-93.092-409.597 390.98 558.543h-353.742l148.941 279.272z"/>
            <glyph unicode="&#xe913;"
                   d="M223.417-26.762c-2.542 0-5.111 0.513-7.549 1.604-8.127 3.6-12.584 12.475-10.62 21.142l87.932 386.857h-274.564c-5.635 0-10.964 2.542-14.493 6.927-3.545 4.402-4.887 10.145-3.704 15.66l93.092 428.218c1.871 8.547 9.442 14.651 18.202 14.651h297.888c6.545 0 12.605-3.436 15.965-9.038 3.36-5.624 3.545-12.584 0.475-18.349l-134.35-251.89h322.706c6.944 0 13.314-3.856 16.505-10.015 3.218-6.164 2.727-13.582-1.255-19.271l-390.98-558.543c-3.578-5.111-9.338-7.953-15.251-7.953zM41.722 420.073h274.783c5.651 0 11.024-2.58 14.542-6.998 3.545-4.44 4.871-10.222 3.622-15.742l-72.054-317.001 316.013 451.455h-317.972c-6.545 0-12.605 3.436-15.965 9.038-3.36 5.624-3.545 12.584-0.475 18.349l134.35 251.885h-251.857l-84.987-390.986z"/>
            <glyph unicode="&#xe914;"
                   d="M502.689 904.146l-93.092-428.218h297.893l-93.092-409.597 390.98 558.543h-353.742l148.941 279.272z"/>
            <glyph unicode="&#xe915;"
                   d="M614.398 47.714c-2.542 0-5.111 0.513-7.549 1.604-8.127 3.6-12.584 12.475-10.62 21.142l87.932 386.851h-274.564c-5.635 0-10.964 2.542-14.493 6.927-3.545 4.402-4.887 10.145-3.704 15.66l93.092 428.213c1.871 8.547 9.431 14.651 18.202 14.651h297.888c6.545 0 12.605-3.436 15.965-9.038 3.36-5.624 3.545-12.584 0.475-18.349l-134.35-251.885h322.706c6.944 0 13.314-3.856 16.505-10.015 3.218-6.164 2.727-13.582-1.255-19.271l-390.98-558.543c-3.578-5.111-9.338-7.947-15.251-7.947zM432.702 494.549h274.783c5.651 0 11.024-2.58 14.542-6.998 3.545-4.44 4.871-10.222 3.622-15.742l-72.054-317.001 316.013 451.455h-317.977c-6.545 0-12.605 3.436-15.965 9.038-3.36 5.624-3.545 12.584-0.475 18.349l134.35 251.885h-251.852l-84.987-390.986z"/>
            <glyph unicode="&#xe916;"
                   d="M432.112-58.632l394.976 680.088c8.942 15.398-3.74 34.346-21.384 31.946l-262.728-35.71 62.774 329.564c2.116 11.11-12.208 17.476-19.036 8.462l-388.348-512.62c-11.312-14.93 0.666-36.16 19.294-34.2l289.656 30.49-94.958-490.616c-2.29-11.834 13.7-17.828 19.754-7.404z"/>
            <glyph unicode="&#xe917;"
                   d="M319.81 479.426c-7.254-0.58-12.072 7.35-8.216 13.52l290.358 464.572c-4.32 3.418-11.12 3.638-15.238-1.798l-388.348-512.62c-11.312-14.932 0.666-36.16 19.294-34.2l289.656 30.49-94.958-490.616c-1.28-6.618 3.184-11.274 8.402-12.388l162.718 514.894c7.628 24.134-11.616 48.312-36.846 46.292l-226.822-18.146z"/>
            <glyph unicode="&#xe918;"
                   d="M465.454 52.364v861.090c0 25.6 20.946 46.546 46.546 46.546v0c25.6 0 46.546-20.946 46.546-46.546v-861.090h-93.092z"/>
            <glyph unicode="&#xe919;"
                   d="M302.546-40.728c0-11.636 11.636-23.272 23.272-23.272h372.364c11.636 0 23.272 11.636 23.272 23.272v0c0 11.636-9.31 27.928-20.946 32.582 0 0-128 60.51-141.964 60.51h-93.090c-11.636 0-141.964-60.51-141.964-60.51-11.636-4.654-20.944-20.944-20.944-32.582v0z"/>
            <glyph unicode="&#xe91a;"
                   d="M512 913.454v-279.272h-46.546v-23.272c25.6 0 46.546-20.946 46.546-46.546v-209.454h-46.546v-23.272c25.6 0 46.546-20.946 46.546-46.546v-232.728h46.546v861.090c0 13.964-9.31 23.272-23.272 23.272v0c-13.964 0.002-23.274-9.308-23.274-23.272z"/>
            <glyph unicode="&#xe91b;"
                   d="M325.818-64h372.364c11.636 0 23.272 11.636 23.272 23.272v0c0 11.636-9.31 27.928-20.946 32.582 0 0-128 60.51-141.964 60.51h-46.544l30.254-60.51c6.982-16.29-4.654-32.582-20.946-32.582h-218.762c0-11.636 11.636-23.272 23.272-23.272z"/>
            <glyph unicode="&#xe91c;"
                   d="M605.090 331.636h-493.38c-11.636 0-23.272 4.654-32.582 13.964l-62.838 62.836c-9.308 9.31-16.29 25.6-16.29 39.564v0c0 13.964 6.982 30.254 16.29 39.564l62.838 62.836c9.31 9.31 20.946 13.964 32.582 13.964h493.382c25.6 0 46.546-20.946 46.546-46.546v-139.636c-0.002-25.6-20.948-46.546-46.548-46.546z"/>
            <glyph unicode="&#xe91d;"
                   d="M418.91 866.91h493.382c11.636 0 23.272-4.654 32.582-13.964l62.836-62.836c9.31-9.31 16.29-25.6 16.29-39.564v0c0-13.964-6.982-30.254-16.29-39.564l-62.836-62.836c-9.31-9.31-20.946-13.964-32.582-13.964h-493.382c-25.6 0-46.546 20.946-46.546 46.546v139.636c0 25.6 20.946 46.546 46.546 46.546z"/>
            <glyph unicode="&#xe91e;"
                   d="M605.090 517.818v-46.546c0-13.964-9.31-23.272-23.272-23.272h-581.818c0-13.964 6.982-30.254 16.29-39.564l62.838-62.836c9.31-9.31 20.946-13.964 32.582-13.964h493.382c25.6 0 46.546 20.946 46.546 46.546v139.636c-0.002 30.254-46.548 27.928-46.548 0z"/>
            <glyph unicode="&#xe91f;"
                   d="M535.272 448c0-12.853-10.419-23.272-23.272-23.272s-23.272 10.419-23.272 23.272c0 12.853 10.419 23.272 23.272 23.272s23.272-10.419 23.272-23.272z"/>
            <glyph unicode="&#xe920;"
                   d="M418.91 634.182h493.382c11.636 0 23.272 4.654 32.582 13.964l62.836 62.836c9.31 9.31 16.29 25.6 16.29 39.564h-581.818c-13.964 0-23.272-9.31-23.272-23.272v-93.092z"/>
            <glyph unicode="&#xe921;"
                   d="M535.272 750.546c0-12.853-10.419-23.272-23.272-23.272s-23.272 10.419-23.272 23.272c0 12.853 10.419 23.272 23.272 23.272s23.272-10.419 23.272-23.272z"/>
            <glyph unicode="&#xe922;"
                   d="M418.91 843.636h93.090c6.982 0 11.636-4.654 11.636-11.636v0c0-6.982-4.654-11.636-11.636-11.636h-93.090c-6.982 0-11.636 4.654-11.636 11.636v0c-0.002 6.982 4.654 11.636 11.636 11.636z"/>
            <glyph unicode="&#xe923;"
                   d="M570.182 832c0-6.426-5.21-11.636-11.636-11.636s-11.636 5.21-11.636 11.636c0 6.426 5.21 11.636 11.636 11.636s11.636-5.21 11.636-11.636z"/>
            <glyph unicode="&#xe924;"
                   d="M128 541.090h116.364c6.982 0 11.636-4.654 11.636-11.636v0c0-6.982-4.654-11.636-11.636-11.636h-116.364c-6.982 0-11.636 4.654-11.636 11.636v0c0 6.982 4.654 11.636 11.636 11.636z"/>
            <glyph unicode="&#xe925;" d="M912.918 808.749l-581.736-526.041-231.989 99.7 619.951 532.23z"/>
            <glyph unicode="&#xe926;" d="M342.546-18.655l-342.546 179.859 99.194 221.204 231.989-99.7z"/>
            <glyph unicode="&#xe927;" d="M1024 621.67l-681.454-640.326-11.363 301.363 581.736 526.041z"/>
            <glyph unicode="&#xe928;" glyph-name="heart"
                   d="M964.288 781.258c-152.38 197.836-452.269 81.101-452.269-119.808 0 200.908-299.908 317.653-452.31 119.808-157.512-204.532-2.263-562.82 452.3-768.634 454.542 205.814 609.79 564.101 452.279 768.634z"/>
            <glyph unicode="&#xe929;"
                   d="M566.512 905.844c-4.956 33.037-23.126 11.563-64.422 1.652-42.948 9.911-59.467 31.385-66.074-1.652-74.333 18.17-130.496 95.807-130.496 1.652 0-105.718 104.067-256.037 191.615-256.037 1.652 0 3.304 0 4.956 0s3.304 0 4.956 0c85.896 0 191.615 150.318 191.615 256.037-1.652 94.155-57.815 14.867-132.148-1.652z"/>
            <glyph unicode="&#xe92a;"
                   d="M553.297 905.844c-4.956 33.037-18.17 11.563-52.859 1.652-33.037 9.911-47.904 31.385-52.859-1.652-59.467 18.17-104.067 95.807-104.067 1.652 0-105.718 82.592-256.037 151.97-256.037 1.652 0 1.652 0 3.304 0s1.652 0 3.304 0c69.378 0 151.97 150.318 151.97 256.037 4.956 94.155-41.296 14.867-100.763-1.652z"/>
            <glyph unicode="&#xe92b;"
                   d="M962.956 121.216c8.259 23.126 11.563 47.904 11.563 75.985 0 206.481-206.481 457.562-462.518 457.562s-462.518-252.733-462.518-457.562c0-28.081 3.304-54.511 11.563-75.985-42.948-28.081-67.726-62.77-59.467-90.852 11.563-42.948 92.504-59.467 185.007-37.993 84.244-37.993 198.222-49.555 325.414-49.555s241.17 11.563 325.414 49.555c92.504-21.474 173.444-4.956 185.007 37.993 8.259 28.081-16.518 62.77-59.467 90.852z"/>
            <glyph unicode="&#xe92c;"
                   d="M962.956 121.216c8.259 23.126 11.563 47.904 11.563 75.985 0 206.481-206.481 427.829-462.518 427.829s-462.518-223-462.518-427.829c0-28.081 3.304-54.511 11.563-75.985-42.948-28.081-67.726-62.77-59.467-90.852 11.563-42.948 92.504-59.467 185.007-37.993 84.244-37.993 198.222-49.555 325.414-49.555s241.17 11.563 325.414 49.555c92.504-21.474 173.444-4.956 185.007 37.993 8.259 28.081-16.518 62.77-59.467 90.852z"/>
            <glyph unicode="&#xe92d;"
                   d="M630.934 658.067c0-18.17-14.867-31.385-31.385-31.385h-175.096c-18.17 0-31.385 14.867-31.385 31.385v0c0 18.17 14.867 31.385 31.385 31.385h173.444c18.17 1.652 33.037-13.215 33.037-31.385v0z"/>
            <glyph unicode="&#xe92e;"
                   d="M599.549 669.63c0 8.259-1.652 14.867-4.956 21.474h-165.185c-3.304-6.607-4.956-13.215-4.956-21.474 0-16.518 6.607-29.733 16.518-42.948h140.407c11.563 11.563 18.17 26.43 18.17 42.948z"/>
            <glyph unicode="&#xe92f;"
                   d="M189.89 388.815c0 29.733 23.126 52.859 52.859 52.859 1.652 0 4.956 0 6.607 0-6.607 4.956-14.867 6.607-23.126 6.607-23.126 0-42.948-19.822-42.948-42.948 0-8.259 3.304-16.518 6.607-23.126 0 3.304 0 4.956 0 6.607z"/>
            <glyph unicode="&#xe930;"
                   d="M166.765 207.112c-26.43 29.733-23.126 75.985 8.259 100.763 1.652 1.652 4.956 3.304 6.607 4.956-11.563-1.652-21.474-4.956-29.733-13.215-24.778-21.474-26.43-57.815-6.607-80.941 8.259-8.259 16.518-14.867 28.081-18.17-3.304 3.304-4.956 4.956-6.607 6.607z"/>
            <glyph unicode="&#xe931;"
                   d="M297.261 481.319c6.607 18.17 26.43 26.43 44.6 19.822 1.652 0 1.652-1.652 3.304-1.652-3.304 4.956-6.607 8.259-11.563 9.911-14.867 4.956-29.733-1.652-34.689-14.867-1.652-4.956-1.652-9.911-1.652-14.867-1.652-1.652-1.652 0 0 1.652z"/>
            <glyph unicode="&#xe932;"
                   d="M759.778 428.46c28.081-9.911 42.948-39.644 33.037-67.726 0-1.652-1.652-3.304-3.304-4.956 6.607 4.956 11.563 11.563 14.867 19.822 8.259 21.474-4.956 46.252-26.43 54.511-8.259 3.304-16.518 3.304-24.778 1.652 3.304-1.652 4.956-1.652 6.607-3.304z"/>
            <glyph unicode="&#xe933;"
                   d="M594.594 509.4c36.341 14.867 79.289-3.304 94.155-39.644 1.652-3.304 1.652-4.956 1.652-8.259 1.652 9.911 1.652 21.474-3.304 33.037-11.563 29.733-44.6 42.948-74.333 31.385-11.563-4.956-19.822-11.563-26.43-19.822 3.304 0 6.607 1.652 8.259 3.304z"/>
            <glyph unicode="&#xe934;"
                   d="M812.638 297.964c14.867-11.563 16.518-33.037 4.956-47.904-1.652-1.652-1.652-1.652-3.304-3.304 4.956 1.652 9.911 4.956 13.215 8.259 9.911 11.563 8.259 28.081-3.304 37.993-4.956 4.956-9.911 6.607-14.867 6.607 1.652 0 3.304-1.652 3.304-1.652z"/>
            <glyph unicode="&#xe935;"
                   d="M512 112.552c-253.511 0-459.034 52.295-459.034 105.931v-123.516c0.141-53.601 205.594-106.002 459.034-106.002s458.893 52.401 459.034 106.002v123.516c0-53.636-205.524-105.931-459.034-105.931z"/>
            <glyph unicode="&#xe936;"
                   d="M459.034 306.759c-253.511 0-459.034 52.295-459.034 105.931v-123.516c0.141-53.601 205.594-106.002 459.034-106.002s458.893 52.401 459.034 106.002v123.516c0-53.636-205.524-105.931-459.034-105.931z"/>
            <glyph unicode="&#xe937;"
                   d="M564.966 500.966c-253.511 0-459.034 52.295-459.034 105.931v-123.516c0.141-53.601 205.594-106.002 459.034-106.002s458.893 52.401 459.034 106.002v123.516c0-53.636-205.524-105.931-459.034-105.931z"/>
            <glyph unicode="&#xe938;"
                   d="M918.069 816.463c0-53.619-205.524-103.636-459.034-103.636s-459.034 50.017-459.034 103.636c0 53.636 205.524 90.571 459.034 90.571s459.034-36.935 459.034-90.571z"/>
            <glyph unicode="&#xe939;"
                   d="M459.034 712.828c-253.511 0-459.034 52.295-459.034 105.931v-123.516c0.141-53.601 205.594-106.002 459.034-106.002s458.893 52.401 459.034 106.002v123.516c0-53.636-205.524-105.931-459.034-105.931z"/>
            <glyph unicode="&#xe93a;"
                   d="M70.621 764.487v-123.498c10.734-3.955 22.493-7.768 35.31-11.405v123.516c-12.818 3.637-24.576 7.45-35.31 11.388z"/>
            <glyph unicode="&#xe93b;"
                   d="M812.138 753.099v-123.516c12.818 3.637 24.576 7.45 35.31 11.405v123.498c-10.734-3.955-22.493-7.751-35.31-11.388z"/>
            <glyph unicode="&#xe93c;"
                   d="M158.897 740.281v-123.533c11.299-2.348 23.075-4.573 35.31-6.674v123.533c-12.235 2.101-24.011 4.326-35.31 6.674z"/>
            <glyph unicode="&#xe93d;"
                   d="M723.862 733.608v-123.551c12.235 2.119 24.011 4.343 35.31 6.691v123.533c-11.299-2.348-23.075-4.573-35.31-6.674z"/>
            <glyph unicode="&#xe93e;"
                   d="M247.172 725.734v-123.551c11.511-1.483 23.252-2.86 35.31-4.096v123.551c-12.058 1.236-23.799 2.631-35.31 4.096z"/>
            <glyph unicode="&#xe93f;"
                   d="M635.586 721.62v-123.551c12.058 1.254 23.799 2.631 35.31 4.096v123.569c-11.511-1.501-23.252-2.878-35.31-4.114z"/>
            <glyph unicode="&#xe940;"
                   d="M335.448 717.082v-123.569c11.599-0.812 23.358-1.536 35.31-2.119v123.586c-11.953 0.583-23.711 1.289-35.31 2.101z"/>
            <glyph unicode="&#xe941;"
                   d="M547.31 714.982v-123.586c11.953 0.583 23.711 1.306 35.31 2.119v123.569c-11.599-0.812-23.358-1.518-35.31-2.101z"/>
            <glyph unicode="&#xe942;"
                   d="M459.034 712.828c-5.914 0-11.794 0.053-17.655 0.106v-123.586c5.862-0.053 11.741-0.106 17.655-0.106s11.794 0.053 17.655 0.106v123.586c-5.862-0.053-11.741-0.106-17.655-0.106z"/>
            <glyph unicode="&#xe943;"
                   d="M176.552 552.625v-123.498c10.734-3.955 22.493-7.768 35.31-11.405v123.516c-12.818 3.637-24.576 7.45-35.31 11.388z"/>
            <glyph unicode="&#xe944;"
                   d="M918.069 541.237v-123.516c12.818 3.637 24.576 7.45 35.31 11.405v123.498c-10.734-3.955-22.493-7.751-35.31-11.388z"/>
            <glyph unicode="&#xe945;"
                   d="M264.828 528.419v-123.533c11.299-2.348 23.075-4.573 35.31-6.674v123.533c-12.235 2.101-24.011 4.326-35.31 6.674z"/>
            <glyph unicode="&#xe946;"
                   d="M829.793 521.746v-123.551c12.235 2.119 24.011 4.343 35.31 6.691v123.533c-11.299-2.348-23.075-4.573-35.31-6.674z"/>
            <glyph unicode="&#xe947;"
                   d="M353.103 513.854v-123.551c11.511-1.483 23.252-2.86 35.31-4.096v123.551c-12.058 1.254-23.799 2.631-35.31 4.096z"/>
            <glyph unicode="&#xe948;"
                   d="M741.517 509.775v-123.569c12.058 1.254 23.799 2.631 35.31 4.096v123.551c-11.511-1.483-23.252-2.86-35.31-4.078z"/>
            <glyph unicode="&#xe949;"
                   d="M441.379 505.22v-123.569c11.599-0.812 23.358-1.536 35.31-2.119v123.586c-11.953 0.583-23.711 1.289-35.31 2.101z"/>
            <glyph unicode="&#xe94a;"
                   d="M653.241 503.119v-123.586c11.953 0.583 23.711 1.306 35.31 2.119v123.569c-11.599-0.812-23.358-1.518-35.31-2.101z"/>
            <glyph unicode="&#xe94b;"
                   d="M564.966 500.966c-5.914 0-11.794 0.053-17.655 0.106v-123.586c5.862-0.053 11.741-0.106 17.655-0.106s11.794 0.053 17.655 0.106v123.586c-5.862-0.053-11.741-0.106-17.655-0.106z"/>
            <glyph unicode="&#xe94c;"
                   d="M70.621 358.418v-123.498c10.734-3.955 22.493-7.751 35.31-11.405v123.516c-12.818 3.637-24.576 7.45-35.31 11.388z"/>
            <glyph unicode="&#xe94d;"
                   d="M812.138 347.030v-123.516c12.818 3.637 24.576 7.45 35.31 11.405v123.498c-10.734-3.955-22.493-7.751-35.31-11.388z"/>
            <glyph unicode="&#xe94e;"
                   d="M158.897 334.212v-123.533c11.299-2.348 23.075-4.573 35.31-6.674v123.533c-12.235 2.101-24.011 4.326-35.31 6.674z"/>
            <glyph unicode="&#xe94f;"
                   d="M723.862 327.539v-123.551c12.235 2.119 24.011 4.343 35.31 6.691v123.533c-11.299-2.348-23.075-4.573-35.31-6.674z"/>
            <glyph unicode="&#xe950;"
                   d="M247.172 319.647v-123.551c11.511-1.483 23.252-2.86 35.31-4.096v123.551c-12.058 1.254-23.799 2.631-35.31 4.096z"/>
            <glyph unicode="&#xe951;"
                   d="M635.586 315.569v-123.569c12.058 1.254 23.799 2.631 35.31 4.096v123.551c-11.511-1.483-23.252-2.86-35.31-4.078z"/>
            <glyph unicode="&#xe952;"
                   d="M335.448 311.014v-123.569c11.599-0.812 23.358-1.536 35.31-2.119v123.586c-11.953 0.583-23.711 1.289-35.31 2.101z"/>
            <glyph unicode="&#xe953;"
                   d="M547.31 308.913v-123.586c11.953 0.583 23.711 1.306 35.31 2.119v123.569c-11.599-0.812-23.358-1.518-35.31-2.101z"/>
            <glyph unicode="&#xe954;"
                   d="M459.034 306.759c-5.914 0-11.794 0.053-17.655 0.106v-123.586c5.862-0.053 11.741-0.106 17.655-0.106s11.794 0.053 17.655 0.106v123.586c-5.862-0.053-11.741-0.106-17.655-0.106z"/>
            <glyph unicode="&#xe955;"
                   d="M123.586 164.211v-123.498c10.734-3.955 22.493-7.751 35.31-11.405v123.516c-12.818 3.637-24.576 7.45-35.31 11.388z"/>
            <glyph unicode="&#xe956;"
                   d="M865.103 152.823v-123.516c12.818 3.637 24.576 7.45 35.31 11.405v123.498c-10.734-3.955-22.493-7.751-35.31-11.388z"/>
            <glyph unicode="&#xe957;"
                   d="M211.862 140.006v-123.533c11.299-2.348 23.075-4.573 35.31-6.674v123.533c-12.235 2.101-24.011 4.326-35.31 6.674z"/>
            <glyph unicode="&#xe958;"
                   d="M776.828 133.332v-123.551c12.235 2.119 24.011 4.343 35.31 6.691v123.533c-11.299-2.348-23.075-4.573-35.31-6.674z"/>
            <glyph unicode="&#xe959;"
                   d="M300.138 125.44v-123.551c11.511-1.483 23.252-2.86 35.31-4.096v123.551c-12.058 1.254-23.799 2.631-35.31 4.096z"/>
            <glyph unicode="&#xe95a;"
                   d="M688.552 121.362v-123.569c12.058 1.254 23.799 2.631 35.31 4.096v123.551c-11.511-1.483-23.252-2.86-35.31-4.078z"/>
            <glyph unicode="&#xe95b;"
                   d="M388.414 116.807v-123.569c11.599-0.812 23.358-1.536 35.31-2.119v123.586c-11.953 0.583-23.711 1.289-35.31 2.101z"/>
            <glyph unicode="&#xe95c;"
                   d="M600.276 114.706v-123.586c11.953 0.583 23.711 1.306 35.31 2.119v123.569c-11.599-0.812-23.358-1.518-35.31-2.101z"/>
            <glyph unicode="&#xe95d;"
                   d="M512 112.552c-5.914 0-11.794 0.053-17.655 0.106v-123.586c5.862-0.053 11.741-0.106 17.655-0.106s11.794 0.053 17.655 0.106v123.586c-5.862-0.053-11.741-0.106-17.655-0.106z"/>
            <glyph unicode="&#xe95e;"
                   d="M904.157 264.881c-50.141-44.103-230.382-81.708-445.122-81.708-167.901 0-314.668 23.005-394.699 54.113-7.362-6.674-11.37-13.736-11.37-21.098 0-53.636 205.524-103.636 459.034-103.636 253.528 0 459.034 49.999 459.034 103.636 0 18.485-24.452 35.010-66.878 48.693z"/>
            <glyph unicode="&#xe95f;"
                   d="M564.966 377.379c-233.278 0-425.772 44.403-455.044 93.272-68.484-15.519-109.921-36.193-109.921-60.257 0-53.619 205.524-103.636 459.034-103.636s459.034 50.017 459.034 103.636c0 2.366-0.53 4.679-1.324 6.974-84.198-23.693-210.503-39.989-351.779-39.989z"/>
            <glyph unicode="&#xe960;"
                   d="M900.29 667.825c-54.925-42.726-231.618-78.583-441.256-78.583-135.38 0-257.042 14.972-341.063 37.076-7.786-6.886-12.041-14.124-12.041-21.716 0-53.636 205.524-103.636 459.034-103.636s459.034 49.999 459.034 103.636c0 25.635-47.016 47.439-123.71 63.223z"/>
            <glyph unicode="&#xe961;"
                   d="M619.028 882.706l16.55-116.959c75.55-15.11 86.437-133.673 88.005-167.537 0.284-6.146 2.246-12.080 5.58-17.25l28.826-44.716c0 0-9.866 73.928 35.308 123.579 0.002 0 15.514 293.5-174.269 222.883z"/>
            <glyph unicode="&#xe962;"
                   d="M299.416 914.338l26.112-17.838c-118.061-87.167-95.995-236.677-95.995-236.677 35.308-35.308 35.308-123.579 35.308-123.579l35.308 35.308c0 0-13.626 101.995 52.962 141.233 61.79 36.412 115.855 17.654 171.025 17.654 147.853 0 189.231 55.722 182.059 123.579-3.712 35.112-57.396 108.251-194.195 105.925-55.208-0.938-158.885-17.654-212.583-45.606z"/>
            <glyph unicode="&#xe963;"
                   d="M289.116 745.887c0 0-18.758 73.928 36.412 150.611-118.061-87.167-95.995-236.677-95.995-236.677 35.308-35.308 35.308-123.579 35.308-123.579l35.308 35.308c0 0-13.626 101.995 52.962 141.233 61.79 36.412 115.855 17.654 171.025 17.654 24.046 0 45 1.61 63.664 4.37-113.863-3.816-180.985 82.434-298.682 11.080z"/>
            <glyph unicode="&#xe964;"
                   d="M291.324 447.975h-26.482c-9.75 0-17.654 7.904-17.654 17.654v123.579c0 9.75 7.904 17.654 17.654 17.654h26.482c4.874 0 8.828-3.952 8.828-8.828v-141.231c-0.002-4.878-3.954-8.828-8.828-8.828z"/>
            <glyph unicode="&#xe965;"
                   d="M582.619 346.464v26.482c119.485 0 145.647 66.906 145.647 92.683h26.482c-0.002-33.146-30.924-119.165-172.129-119.165z"/>
            <glyph unicode="&#xe966;"
                   d="M582.619 342.050h-17.654c-9.75 0-17.654 7.904-17.654 17.654v0c0 9.75 7.904 17.654 17.654 17.654h17.654c9.75 0 17.654-7.904 17.654-17.654v0c0-9.75-7.906-17.654-17.654-17.654z"/>
            <glyph unicode="&#xe967;"
                   d="M759.16 465.629l25.55 12.776c5.98 2.99 9.758 9.102 9.758 15.79v66.448c0 6.686-3.778 12.8-9.758 15.79l-25.55 12.776v-123.579z"/>
            <glyph unicode="&#xe968;"
                   d="M732.678 447.975h26.482c9.75 0 17.654 7.904 17.654 17.654v123.579c0 9.75-7.904 17.654-17.654 17.654h-26.482c-4.874 0-8.828-3.952-8.828-8.828v-141.231c0.002-4.878 3.954-8.828 8.828-8.828z"/>
            <glyph unicode="&#xe969;"
                   d="M741.506-28.686h-123.579c-9.75 0-17.654-7.904-17.654-17.654v-17.654h158.887v17.654c0 9.748-7.906 17.654-17.654 17.654z"/>
        </font>
</defs>
</svg>
